<svg xmlns="http://www.w3.org/2000/svg" version="1.1" xmlns:xlink="http://www.w3.org/1999/xlink" xmlns:svgjs="http://svgjs.dev/svgjs" width="100%" height="100%" viewBox="0 0 1000 600"><rect width="1000" height="600" x="0" y="0" fill="#cc313d"/><g><rect width="333.3333333333333" height="333.3333333333333" rx="13.333333333333334" ry="13.333333333333334" y="246.64218036671477" fill="#f7c5cc" transform="matrix(0.5569914484044063,0,0,0.5569914484044063,0,69.79050283782439)" x="224.41996765136716"/><path d="M441.24605703989846 382.19087205472283Q441.24605703989846 400.93339884388655 428.422222920997 413.3088471544348Q415.628281189319 425.6842954649831 389.3528728198216 425.6842954649831L389.3528728198216 425.6842954649831L360.53661153632265 425.6842954649831L360.53661153632265 488.3088466983132L340.9272055176761 488.3088466983132L340.9272055176761 338.3088476105564L389.3528728198216 338.3088476105564Q414.7614019598362 338.3088476105564 428.0037294998673 350.56472637221054Q441.24605703989846 362.82060513386466 441.24605703989846 382.19087205472283L441.24605703989846 382.19087205472283ZM389.3528728198216 409.54240636426795Q405.7339010183251 409.54240636426795 413.4760293092237 402.42801820506384Q421.21815760012225 395.3435224330833 421.21815760012225 382.19087205472283L421.21815760012225 382.19087205472283Q421.21815760012225 354.4507367112716 389.3528728198216 354.4507367112716L389.3528728198216 354.4507367112716L360.53661153632265 354.4507367112716L360.53661153632265 409.54240636426795L389.3528728198216 409.54240636426795Z " fill="#cc313d" transform="matrix(0.5569914484044063,0,0,0.5569914484044063,0,69.79050283782439)"/><path d="M709.5671061659558 377.67083898838Q709.5671061659558 390.465016279479 700.8131953878354 398.91284626116163Q692.0796899961442 407.36067624284425 674.1433553248906 407.36067624284425L674.1433553248906 407.36067624284425L654.4725628071562 407.36067624284425L654.4725628071562 450.1099608119869L641.0866293096109 450.1099608119869L641.0866293096109 347.7157317103364L674.1433553248906 347.7157317103364Q691.4879337896979 347.7157317103364 700.5275199778268 356.08194014630226Q709.5671061659558 364.4481485822681 709.5671061659558 377.67083898838L709.5671061659558 377.67083898838ZM674.1433553248906 396.34176757108435Q685.325507088084 396.34176757108435 690.6105021732429 391.4852856009383Q695.8954972584019 386.64920901722144 695.8954972584019 377.67083898838L695.8954972584019 377.67083898838Q695.8954972584019 358.7346403820963 674.1433553248906 358.7346403820963L674.1433553248906 358.7346403820963L654.4725628071562 358.7346403820963L654.4725628071562 396.34176757108435L674.1433553248906 396.34176757108435ZM721.1573656577328 409.56445797719624Q721.1573656577328 397.2191991875393 726.1566853328833 387.89393758940173Q731.1560050080335 378.5686759912642 739.8895103997248 373.42651861110954Q748.6434211778452 368.2843612309549 759.3562490531673 368.2843612309549L759.3562490531673 368.2843612309549Q769.9466446099144 368.2843612309549 777.7210968394339 372.8347624046632Q785.5159544553825 377.3851635783714 789.3317617176402 384.282184191436L789.3317617176402 384.282184191436L789.3317617176402 369.59030596242275L802.8605329201897 369.59030596242275L802.8605329201897 450.1099608119869L789.3317617176402 450.1099608119869L789.3317617176402 435.1324071729651Q785.3731167503782 442.1722654910339 777.5170429751421 446.80428821045894Q769.6405638134767 451.4363109298839 759.213411348163 451.4363109298839L759.213411348163 451.4363109298839Q748.500583472841 451.4363109298839 739.8282942404372 446.151315844725Q731.1560050080335 440.8459153731369 726.1566853328833 431.2961945242783Q721.1573656577328 421.7464736754197 721.1573656577328 409.56445797719624L721.1573656577328 409.56445797719624ZM789.3317617176402 409.70729568220054Q789.3317617176402 400.60649333478403 785.6587921603867 393.8319050402946Q781.9858226031334 387.0777221322343 775.7417743558029 383.48637412069775Q769.4977261084722 379.874620722732 762.0089492889614 379.874620722732L762.0089492889614 379.874620722732Q754.5201724694504 379.874620722732 748.3373403814074 383.40475257498105Q742.1749136797936 386.93488442723003 738.5019441225403 393.6890673352903Q734.8289745652869 400.4432502433505 734.8289745652869 409.56445797719624L734.8289745652869 409.56445797719624Q734.8289745652869 418.80809802961704 738.5019441225403 425.643902483394Q742.1749136797936 432.47970693717104 748.3373403814074 436.0710549487076Q754.5201724694504 439.6828083466733 762.0089492889614 439.6828083466733L762.0089492889614 439.6828083466733Q769.4977261084722 439.6828083466733 775.7417743558029 436.0710549487076Q781.9858226031334 432.47970693717104 785.6587921603867 425.643902483394Q789.3317617176402 418.80809802961704 789.3317617176402 409.70729568220054L789.3317617176402 409.70729568220054ZM838.8556345812723 384.44542728286945Q842.814279548534 377.5280012833757 850.6703533237704 372.89597856395073Q858.5264270990066 368.2843612309549 868.9739849507492 368.2843612309549L868.9739849507492 368.2843612309549Q879.6868128260713 368.2843612309549 888.4407236041919 373.42651861110954Q897.174228995883 378.5686759912642 902.1735486710335 387.89393758940173Q907.1728683461837 397.2191991875393 907.1728683461837 409.56445797719624L907.1728683461837 409.56445797719624Q907.1728683461837 421.7464736754197 902.1735486710335 431.2961945242783Q897.174228995883 440.8459153731369 888.4407236041919 446.151315844725Q879.6868128260713 451.4363109298839 868.9739849507492 451.4363109298839L868.9739849507492 451.4363109298839Q858.6896701904401 451.4363109298839 850.8131910287747 446.80428821045894Q842.9571172535383 442.1722654910339 838.8556345812723 435.2752448779694L838.8556345812723 435.2752448779694L838.8556345812723 488.30884420742126L825.4697010837268 488.30884420742126L825.4697010837268 369.59030596242275L838.8556345812723 369.59030596242275L838.8556345812723 384.44542728286945ZM893.5012594386297 409.56445797719624Q893.5012594386297 400.4432502433505 889.8282898813765 393.6890673352903Q886.1553203241232 386.93488442723003 879.9112720767924 383.40475257498105Q873.6672238294619 379.874620722732 866.1784470099509 379.874620722732L866.1784470099509 379.874620722732Q858.8325078954443 379.874620722732 852.5884596481136 383.48637412069775Q846.3444114007831 387.0777221322343 842.5898202978132 393.9135265860113Q838.8556345812723 400.7493310397883 838.8556345812723 409.70729568220054L838.8556345812723 409.70729568220054Q838.8556345812723 418.80809802961704 842.5898202978132 425.643902483394Q846.3444114007831 432.47970693717104 852.5884596481136 436.0710549487076Q858.8325078954443 439.6828083466733 866.1784470099509 439.6828083466733L866.1784470099509 439.6828083466733Q873.6672238294619 439.6828083466733 879.9112720767924 436.0710549487076Q886.1553203241232 432.47970693717104 889.8282898813765 425.643902483394Q893.5012594386297 418.80809802961704 893.5012594386297 409.56445797719624L893.5012594386297 409.56445797719624ZM938.1686503321158 384.44542728286945Q942.1272952993776 377.5280012833757 949.983369074614 372.89597856395073Q957.8598482362794 368.2843612309549 968.2870007015928 368.2843612309549L968.2870007015928 368.2843612309549Q978.9998285769151 368.2843612309549 987.7537393550355 373.42651861110954Q996.4872447467266 378.5686759912642 1001.486564421877 387.89393758940173Q1006.4858840970272 397.2191991875393 1006.4858840970272 409.56445797719624L1006.4858840970272 409.56445797719624Q1006.4858840970272 421.7464736754197 1001.486564421877 431.2961945242783Q996.4872447467266 440.8459153731369 987.7537393550355 446.151315844725Q978.9998285769151 451.4363109298839 968.2870007015928 451.4363109298839L968.2870007015928 451.4363109298839Q958.0026859412836 451.4363109298839 950.1466121660475 446.80428821045894Q942.2701330043818 442.1722654910339 938.1686503321158 435.2752448779694L938.1686503321158 435.2752448779694L938.1686503321158 488.30884420742126L924.8031222209996 488.30884420742126L924.8031222209996 369.59030596242275L938.1686503321158 369.59030596242275L938.1686503321158 384.44542728286945ZM992.8142751894733 409.56445797719624Q992.8142751894733 400.4432502433505 989.14130563222 393.6890673352903Q985.4683360749667 386.93488442723003 979.224287827636 383.40475257498105Q972.9802395803055 379.874620722732 965.4914627607947 379.874620722732L965.4914627607947 379.874620722732Q958.1455236462879 379.874620722732 951.9014753989574 383.48637412069775Q945.6574271516266 387.0777221322343 941.9028360486567 393.9135265860113Q938.1686503321158 400.7493310397883 938.1686503321158 409.70729568220054L938.1686503321158 409.70729568220054Q938.1686503321158 418.80809802961704 941.9028360486567 425.643902483394Q945.6574271516266 432.47970693717104 951.9014753989574 436.0710549487076Q958.1455236462879 439.6828083466733 965.4914627607947 439.6828083466733L965.4914627607947 439.6828083466733Q972.9802395803055 439.6828083466733 979.224287827636 436.0710549487076Q985.4683360749667 432.47970693717104 989.14130563222 425.643902483394Q992.8142751894733 418.80809802961704 992.8142751894733 409.56445797719624L992.8142751894733 409.56445797719624ZM1019.1168182966927 409.56445797719624Q1019.1168182966927 397.2191991875393 1024.1161379718433 387.89393758940173Q1029.1154576469935 378.5686759912642 1037.8489630386848 373.42651861110954Q1046.5824684303757 368.2843612309549 1057.3157016921273 368.2843612309549L1057.3157016921273 368.2843612309549Q1067.8856918624451 368.2843612309549 1075.680549478394 372.8347624046632Q1083.4754070943422 377.3851635783714 1087.2912143566 384.282184191436L1087.2912143566 384.282184191436L1087.2912143566 369.59030596242275L1100.7995801727207 369.59030596242275L1100.7995801727207 450.1099608119869L1087.2912143566 450.1099608119869L1087.2912143566 435.1324071729651Q1083.312164002909 442.1722654910339 1075.4560902276726 446.80428821045894Q1067.6000164524362 451.4363109298839 1057.172863987123 451.4363109298839L1057.172863987123 451.4363109298839Q1046.4396307253714 451.4363109298839 1037.7673414929677 446.151315844725Q1029.1154576469935 440.8459153731369 1024.1161379718433 431.2961945242783Q1019.1168182966927 421.7464736754197 1019.1168182966927 409.56445797719624L1019.1168182966927 409.56445797719624ZM1087.2912143566 409.70729568220054Q1087.2912143566 400.60649333478403 1083.6182447993465 393.8319050402946Q1079.9452752420934 387.0777221322343 1073.7012269947627 383.48637412069775Q1067.457178747432 379.874620722732 1059.9684019279211 379.874620722732L1059.9684019279211 379.874620722732Q1052.4592197219813 379.874620722732 1046.2967930203672 383.40475257498105Q1040.1343663187536 386.93488442723003 1036.4613967615 393.6890673352903Q1032.7884272042465 400.4432502433505 1032.7884272042465 409.56445797719624L1032.7884272042465 409.56445797719624Q1032.7884272042465 418.80809802961704 1036.4613967615 425.643902483394Q1040.1343663187536 432.47970693717104 1046.2967930203672 436.0710549487076Q1052.4592197219813 439.6828083466733 1059.9684019279211 439.6828083466733L1059.9684019279211 439.6828083466733Q1067.457178747432 439.6828083466733 1073.7012269947627 436.0710549487076Q1079.9452752420934 432.47970693717104 1083.6182447993465 425.643902483394Q1087.2912143566 418.80809802961704 1087.2912143566 409.70729568220054L1087.2912143566 409.70729568220054ZM1151.9354785642581 451.4363109298839Q1142.671433125408 451.4363109298839 1135.3254940109014 448.2734760333602Q1127.9795548963948 445.1106411368366 1123.7148291326953 439.4583490959523Q1119.4705087554248 433.80605705506804 1119.0215902539826 426.4601179405614L1119.0215902539826 426.4601179405614L1132.8360368665408 426.4601179405614Q1133.4277930729872 432.47970693717104 1138.488328907425 436.2955141994286Q1143.5488647418629 440.11132146168626 1151.7926408592539 440.11132146168626L1151.7926408592539 440.11132146168626Q1159.424255383769 440.11132146168626 1163.8318188524731 436.74443270087073Q1168.239382321177 433.357138553626 1168.239382321177 428.21498117347136L1168.239382321177 428.21498117347136Q1168.239382321177 422.92998608831243 1163.5461434424642 420.3589073982351Q1158.8324991773225 417.7878287081578 1148.9971029184553 415.2983715637972L1148.9971029184553 415.2983715637972Q1140.039138276043 412.93134673801177 1134.3664408487298 410.52351113936794Q1128.7141488078455 408.0952701542949 1124.6738822948669 403.3204097298656Q1120.6336157818882 398.54554930543634 1120.6336157818882 390.7506916894876L1120.6336157818882 390.7506916894876Q1120.6336157818882 384.58826498787374 1124.3065853391417 379.4461076077191Q1127.9795548963948 374.3039502275645 1134.7337378044554 371.2839530360451Q1141.5083260989445 368.2843612309549 1150.1602099449192 368.2843612309549L1150.1602099449192 368.2843612309549Q1163.5461434424642 368.2843612309549 1171.7695141734262 375.0385441390152Q1179.9928849043877 381.7927270470754 1180.5846411108341 393.546229630286L1180.5846411108341 393.546229630286L1167.2191129997177 393.546229630286Q1166.7701944982755 387.2205598372386 1162.1381717788508 383.40475257498105Q1157.5061490594258 379.5889453127234 1149.731696829906 379.5889453127234L1149.731696829906 379.5889453127234Q1142.5285954204037 379.5889453127234 1138.2638696567042 382.67015866353034Q1133.9991438930047 385.7513720143373 1133.9991438930047 390.7506916894876L1133.9991438930047 390.7506916894876Q1133.9991438930047 394.7297420431787 1136.5702225830819 397.30082073325605Q1139.1413012731591 399.87189942333333 1143.0387300811335 401.4023034055222Q1146.936158889108 402.95311277414027 1153.8331795021722 404.8508137120545L1153.8331795021722 404.8508137120545Q1162.505468734576 407.21783853783995 1167.9537069111684 409.4828364314795Q1173.3815397013313 411.76823971154823 1177.2789685093057 416.31864088525646Q1181.1763973172801 420.86904205896474 1181.3192350222848 428.21498117347136L1181.3192350222848 428.21498117347136Q1181.3192350222848 434.82632637652733 1177.6462654650313 440.11132146168626Q1173.9732959077778 445.41672193327435 1167.2803291590053 448.4163137383645Q1160.6077677966618 451.4363109298839 1151.9354785642581 451.4363109298839L1151.9354785642581 451.4363109298839ZM1307.8122254968025 377.67083898838Q1307.8122254968025 390.465016279479 1299.0787201051116 398.91284626116163Q1290.3248093269913 407.36067624284425 1272.4088800421669 407.36067624284425L1272.4088800421669 407.36067624284425L1252.717682138003 407.36067624284425L1252.717682138003 450.1099608119869L1239.352154026887 450.1099608119869L1239.352154026887 347.7157317103364L1272.4088800421669 347.7157317103364Q1289.7330531205448 347.7157317103364 1298.7726393086737 356.08194014630226Q1307.8122254968025 364.4481485822681 1307.8122254968025 377.67083898838L1307.8122254968025 377.67083898838ZM1272.4088800421669 396.34176757108435Q1283.5706264189307 396.34176757108435 1288.8556215040899 391.4852856009383Q1294.1406165892486 386.64920901722144 1294.1406165892486 377.67083898838L1294.1406165892486 377.67083898838Q1294.1406165892486 358.7346403820963 1272.4088800421669 358.7346403820963L1272.4088800421669 358.7346403820963L1252.717682138003 358.7346403820963L1252.717682138003 396.34176757108435L1272.4088800421669 396.34176757108435ZM1331.319230663224 356.53085864774437Q1327.5034234009663 356.53085864774437 1324.850723165172 353.87815841195027Q1322.2184283158072 351.2254581761562 1322.2184283158072 347.40965091389864L1322.2184283158072 347.40965091389864Q1322.2184283158072 343.593843651641 1324.850723165172 340.94114341584697Q1327.5034234009663 338.3088485664821 1331.319230663224 338.3088485664821L1331.319230663224 338.3088485664821Q1334.9922002204771 338.3088485664821 1337.5632789105543 340.94114341584697Q1340.134357600632 343.593843651641 1340.134357600632 347.40965091389864L1340.134357600632 347.40965091389864Q1340.134357600632 351.2254581761562 1337.5632789105543 353.87815841195027Q1334.9922002204771 356.53085864774437 1331.319230663224 356.53085864774437L1331.319230663224 356.53085864774437ZM1324.4222100501593 369.59030596242275L1337.7877381612757 369.59030596242275L1337.7877381612757 450.1099608119869L1324.4222100501593 450.1099608119869L1324.4222100501593 369.59030596242275ZM1409.7779414834404 380.46637692917835L1370.5383833801175 439.09105214022696L1410.0636168934489 439.09105214022696L1410.0636168934489 450.1099608119869L1355.275154331087 450.1099608119869L1355.275154331087 439.09105214022696L1394.3514693429765 380.46637692917835L1355.5608297410959 380.46637692917835L1355.5608297410959 369.59030596242275L1409.7779414834404 369.59030596242275L1409.7779414834404 380.46637692917835ZM1476.6259874254506 380.46637692917835L1437.3864293221277 439.09105214022696L1476.911662835459 439.09105214022696L1476.911662835459 450.1099608119869L1422.1232002730972 450.1099608119869L1422.1232002730972 439.09105214022696L1461.1995152849868 380.46637692917835L1422.408875683106 380.46637692917835L1422.408875683106 369.59030596242275L1476.6259874254506 369.59030596242275L1476.6259874254506 380.46637692917835ZM1489.2569216251159 409.56445797719624Q1489.2569216251159 397.2191991875393 1494.256241300266 387.89393758940173Q1499.2555609754168 378.5686759912642 1507.9890663671076 373.42651861110954Q1516.722571758799 368.2843612309549 1527.4558050205505 368.2843612309549L1527.4558050205505 368.2843612309549Q1538.0257951908684 368.2843612309549 1545.8206528068167 372.8347624046632Q1553.6155104227655 377.3851635783714 1557.4313176850233 384.282184191436L1557.4313176850233 384.282184191436L1557.4313176850233 369.59030596242275L1570.9396835011435 369.59030596242275L1570.9396835011435 450.1099608119869L1557.4313176850233 450.1099608119869L1557.4313176850233 435.1324071729651Q1553.4522673313322 442.1722654910339 1545.5961935560958 446.80428821045894Q1537.7401197808595 451.4363109298839 1527.3129673155463 451.4363109298839L1527.3129673155463 451.4363109298839Q1516.5797340537947 451.4363109298839 1507.907444821391 446.151315844725Q1499.2555609754168 440.8459153731369 1494.256241300266 431.2961945242783Q1489.2569216251159 421.7464736754197 1489.2569216251159 409.56445797719624L1489.2569216251159 409.56445797719624ZM1557.4313176850233 409.70729568220054Q1557.4313176850233 400.60649333478403 1553.7583481277698 393.8319050402946Q1550.0853785705167 387.0777221322343 1543.841330323186 383.48637412069775Q1537.5972820758552 379.874620722732 1530.1085052563444 379.874620722732L1530.1085052563444 379.874620722732Q1522.5993230504046 379.874620722732 1516.4368963487905 383.40475257498105Q1510.2744696471764 386.93488442723003 1506.6015000899233 393.6890673352903Q1502.9285305326698 400.4432502433505 1502.9285305326698 409.56445797719624L1502.9285305326698 409.56445797719624Q1502.9285305326698 418.80809802961704 1506.6015000899233 425.643902483394Q1510.2744696471764 432.47970693717104 1516.4368963487905 436.0710549487076Q1522.5993230504046 439.6828083466733 1530.1085052563444 439.6828083466733L1530.1085052563444 439.6828083466733Q1537.5972820758552 439.6828083466733 1543.841330323186 436.0710549487076Q1550.0853785705167 432.47970693717104 1553.7583481277698 425.643902483394Q1557.4313176850233 418.80809802961704 1557.4313176850233 409.70729568220054L1557.4313176850233 409.70729568220054Z " fill="#f7c5cc" transform="matrix(0.5569914484044063,0,0,0.5569914484044063,0,69.79050283782439)"/></g></svg>